<svg xmlns="http://www.w3.org/2000/svg" xmlns:xlink="http://www.w3.org/1999/xlink" width="300" zoomAndPan="magnify" viewBox="0 0 224.87999 225" height="300" preserveAspectRatio="xMidYMid meet" version="1.0"><defs><clipPath id="88ce3973fa"><path d="M 0 0.0585938 L 224.761719 0.0585938 L 224.761719 224.9375 L 0 224.9375 Z M 0 0.0585938 " clip-rule="nonzero"/></clipPath><clipPath id="dc1f8d8534"><path d="M 82.054688 78.769531 L 149.519531 78.769531 L 149.519531 146.230469 L 82.054688 146.230469 Z M 82.054688 78.769531 " clip-rule="nonzero"/></clipPath><clipPath id="96e553d82b"><path d="M 115.789062 78.769531 C 97.160156 78.769531 82.054688 93.871094 82.054688 112.5 C 82.054688 131.128906 97.160156 146.230469 115.789062 146.230469 C 134.417969 146.230469 149.519531 131.128906 149.519531 112.5 C 149.519531 93.871094 134.417969 78.769531 115.789062 78.769531 Z M 115.789062 78.769531 " clip-rule="nonzero"/></clipPath><clipPath id="0ffa5e65ab"><path d="M 88.585938 82.589844 L 136.558594 82.589844 L 136.558594 142.558594 L 88.585938 142.558594 Z M 88.585938 82.589844 " clip-rule="nonzero"/></clipPath><clipPath id="409ef69619"><path d="M 102 104 L 112 104 L 112 115 L 102 115 Z M 102 104 " clip-rule="nonzero"/></clipPath><clipPath id="829637cda4"><path d="M 90.773438 133.335938 L 95.265625 94.617188 L 133.984375 99.109375 L 129.492188 137.828125 Z M 90.773438 133.335938 " clip-rule="nonzero"/></clipPath><clipPath id="411373106a"><path d="M 90.773438 133.335938 L 95.265625 94.617188 L 133.984375 99.109375 L 129.492188 137.828125 Z M 90.773438 133.335938 " clip-rule="nonzero"/></clipPath><clipPath id="d1c8e7342a"><path d="M 108 112 L 131 112 L 131 138 L 108 138 Z M 108 112 " clip-rule="nonzero"/></clipPath><clipPath id="5b1b5b4cba"><path d="M 90.773438 133.335938 L 95.265625 94.617188 L 133.984375 99.109375 L 129.492188 137.828125 Z M 90.773438 133.335938 " clip-rule="nonzero"/></clipPath><clipPath id="136edbbfd3"><path d="M 90.773438 133.335938 L 95.265625 94.617188 L 133.984375 99.109375 L 129.492188 137.828125 Z M 90.773438 133.335938 " clip-rule="nonzero"/></clipPath><clipPath id="83a0880309"><path d="M 113 98 L 122 98 L 122 107 L 113 107 Z M 113 98 " clip-rule="nonzero"/></clipPath><clipPath id="77f4a4a77a"><path d="M 90.773438 133.335938 L 95.265625 94.617188 L 133.984375 99.109375 L 129.492188 137.828125 Z M 90.773438 133.335938 " clip-rule="nonzero"/></clipPath><clipPath id="cb1a231966"><path d="M 90.773438 133.335938 L 95.265625 94.617188 L 133.984375 99.109375 L 129.492188 137.828125 Z M 90.773438 133.335938 " clip-rule="nonzero"/></clipPath><clipPath id="20e12c6f52"><path d="M 97 95 L 105 95 L 105 103 L 97 103 Z M 97 95 " clip-rule="nonzero"/></clipPath><clipPath id="1693b7d3f3"><path d="M 90.773438 133.335938 L 95.265625 94.617188 L 133.984375 99.109375 L 129.492188 137.828125 Z M 90.773438 133.335938 " clip-rule="nonzero"/></clipPath><clipPath id="4ebde5782f"><path d="M 90.773438 133.335938 L 95.265625 94.617188 L 133.984375 99.109375 L 129.492188 137.828125 Z M 90.773438 133.335938 " clip-rule="nonzero"/></clipPath><clipPath id="32720b62da"><path d="M 93 108 L 101 108 L 101 117 L 93 117 Z M 93 108 " clip-rule="nonzero"/></clipPath><clipPath id="74bfd80397"><path d="M 90.773438 133.335938 L 95.265625 94.617188 L 133.984375 99.109375 L 129.492188 137.828125 Z M 90.773438 133.335938 " clip-rule="nonzero"/></clipPath><clipPath id="8690839312"><path d="M 90.773438 133.335938 L 95.265625 94.617188 L 133.984375 99.109375 L 129.492188 137.828125 Z M 90.773438 133.335938 " clip-rule="nonzero"/></clipPath></defs><g clip-path="url(#88ce3973fa)"><path fill="#ffffff" d="M 0 0.0585938 L 224.878906 0.0585938 L 224.878906 224.941406 L 0 224.941406 Z M 0 0.0585938 " fill-opacity="1" fill-rule="nonzero"/><path fill="#ffffff" d="M 0 0.0585938 L 224.878906 0.0585938 L 224.878906 224.941406 L 0 224.941406 Z M 0 0.0585938 " fill-opacity="1" fill-rule="nonzero"/><path fill="#1d1d1b" d="M 0.105469 224.632812 C 0.0742188 224.398438 0.0234375 224.171875 0.015625 223.941406 C 0 223.414062 0.015625 222.878906 0.015625 222.351562 L 0.015625 116.070312 C 0.015625 113.074219 0.0742188 110.074219 0.105469 107.082031 C 0.292969 106.855469 0.308594 106.613281 0.128906 106.375 C 1.625 79.429688 12.472656 54.554688 30.628906 35.328125 C 42.648438 22.601562 56.863281 13.164062 73.269531 7.03125 C 78.890625 4.933594 84.644531 3.308594 90.53125 2.167969 C 93.535156 1.585938 96.542969 1.066406 99.582031 0.765625 C 101.222656 0.609375 102.851562 0.449219 104.492188 0.292969 C 104.671875 0.449219 104.839844 0.429688 104.988281 0.242188 C 105.792969 0.203125 106.597656 0.164062 107.402344 0.136719 C 107.765625 0.367188 108.117188 0.347656 108.464844 0.105469 C 109.585938 0.0898438 110.699219 0.0585938 111.820312 0.0585938 L 222.960938 0.0585938 C 223.488281 0.0585938 224.015625 0.0976562 224.542969 0.144531 C 224.632812 0.144531 224.730469 0.269531 224.78125 0.367188 C 224.835938 0.464844 224.851562 0.585938 224.851562 0.699219 C 224.855469 1.226562 224.863281 1.761719 224.863281 2.285156 C 224.863281 38.691406 224.863281 75.105469 224.871094 111.511719 C 224.871094 114.804688 224.746094 118.101562 224.496094 121.378906 C 224.25 124.71875 223.8125 128.042969 223.253906 131.351562 C 221.910156 139.378906 219.703125 147.164062 216.636719 154.703125 C 210.332031 170.1875 201.035156 183.621094 188.773438 194.988281 C 176.199219 206.648438 161.695312 214.980469 145.304688 220.027344 C 140.757812 221.425781 136.128906 222.546875 131.429688 223.300781 C 130.617188 223.429688 129.804688 223.5625 128.992188 223.691406 C 128.796875 223.570312 128.636719 223.609375 128.511719 223.804688 C 126.292969 224.050781 124.078125 224.375 121.855469 224.535156 C 119.039062 224.738281 116.21875 224.949219 113.398438 224.941406 L 2.601562 224.941406 C 1.894531 224.941406 1.195312 224.910156 0.488281 224.894531 C 0.429688 224.714844 0.292969 224.640625 0.113281 224.632812 Z M 0.105469 224.632812 " fill-opacity="1" fill-rule="nonzero"/></g><path fill="#cbfc54" d="M 168.21875 109.871094 C 169.308594 126.613281 164.125 141.183594 152.273438 153.195312 C 142.90625 162.683594 131.445312 168.089844 118.167969 169.210938 C 101.5 170.617188 86.953125 165.472656 74.863281 153.894531 C 65.035156 144.488281 59.484375 132.835938 58.292969 119.304688 C 56.84375 102.742188 61.90625 88.253906 73.359375 76.1875 C 82.84375 66.199219 94.570312 60.511719 108.3125 59.371094 C 125.191406 57.96875 139.851562 63.222656 151.964844 75.058594 C 161.679688 84.550781 166.953125 96.257812 168.210938 109.878906 Z M 91.683594 115.070312 C 91.683594 115.949219 91.683594 116.828125 91.683594 117.714844 C 91.667969 119.199219 91.652344 120.679688 91.636719 122.152344 C 91.636719 122.664062 91.636719 123.183594 91.636719 123.695312 C 91.667969 124.921875 91.707031 126.140625 92.097656 127.320312 C 92.976562 129.960938 94.96875 130.902344 97.136719 131.023438 C 97.390625 131.023438 97.648438 131.023438 97.902344 131.023438 C 98.078125 131.023438 98.242188 131.039062 98.414062 131.039062 C 107.171875 131.039062 115.925781 131.039062 124.683594 131.046875 C 125.636719 131.046875 126.578125 131 127.53125 130.8125 C 130.324219 130.246094 131.789062 128.15625 131.84375 125.667969 C 131.863281 125.464844 131.886719 125.269531 131.902344 125.066406 C 131.902344 124.890625 131.917969 124.726562 131.917969 124.554688 C 131.917969 119.738281 131.933594 114.925781 131.917969 110.113281 C 131.917969 109.375 132.144531 108.765625 132.59375 108.207031 C 134.835938 105.476562 137.070312 102.746094 139.304688 100.015625 C 139.816406 99.394531 140.335938 98.769531 140.839844 98.128906 C 141.085938 97.820312 141.050781 97.65625 140.726562 97.535156 C 140.53125 97.511719 140.335938 97.460938 140.148438 97.460938 C 132.796875 97.460938 125.449219 97.460938 118.109375 97.460938 C 117.949219 97.460938 117.792969 97.476562 117.640625 97.476562 C 115.894531 97.476562 114.152344 97.460938 112.414062 97.460938 C 111.253906 97.460938 110.089844 97.476562 108.929688 97.476562 C 108.878906 97.476562 108.816406 97.476562 108.765625 97.476562 C 108.652344 97.476562 108.53125 97.476562 108.417969 97.476562 C 105.066406 97.496094 101.710938 97.503906 98.355469 97.550781 C 97.476562 97.566406 96.582031 97.640625 95.714844 97.8125 C 93.429688 98.273438 91.554688 100.722656 91.691406 103.003906 C 91.691406 104.230469 91.691406 105.457031 91.691406 106.683594 C 91.691406 107.847656 91.675781 109.007812 91.675781 110.171875 C 91.675781 111.804688 91.683594 113.4375 91.691406 115.070312 Z M 91.683594 115.070312 " fill-opacity="1" fill-rule="nonzero"/><path fill="#7f76b3" d="M 100.628906 108.902344 C 100.628906 108.902344 100.621094 108.96875 100.613281 109.007812 C 100.613281 108.96875 100.621094 108.9375 100.628906 108.902344 Z M 100.628906 108.902344 " fill-opacity="1" fill-rule="nonzero"/><g clip-path="url(#dc1f8d8534)"><g clip-path="url(#96e553d82b)"><path fill="#ccfd54" d="M 82.054688 78.769531 L 149.519531 78.769531 L 149.519531 146.230469 L 82.054688 146.230469 Z M 82.054688 78.769531 " fill-opacity="1" fill-rule="nonzero"/></g></g><g clip-path="url(#0ffa5e65ab)"><path fill="#5d16e8" d="M 136.269531 95.625 L 136.269531 95.441406 C 136.269531 95.441406 136.269531 95.347656 136.222656 95.300781 L 136.222656 95.253906 C 136.222656 95.207031 136.175781 95.160156 136.175781 95.113281 L 136.175781 95.066406 C 136.132812 95.019531 136.085938 94.972656 136.085938 94.925781 L 123.933594 82.777344 C 123.886719 82.730469 123.839844 82.683594 123.792969 82.683594 L 123.746094 82.683594 C 123.699219 82.636719 123.652344 82.636719 123.605469 82.636719 L 123.558594 82.636719 C 123.511719 82.636719 123.46875 82.589844 123.421875 82.589844 C 123.375 82.589844 123.28125 82.589844 123.234375 82.589844 L 91.410156 82.589844 C 89.867188 82.589844 88.605469 83.851562 88.605469 85.394531 L 88.605469 139.601562 C 88.605469 141.144531 89.867188 142.40625 91.410156 142.40625 L 133.46875 142.40625 C 135.007812 142.40625 136.269531 141.144531 136.269531 139.601562 Z M 134.402344 139.554688 C 134.402344 140.066406 133.980469 140.488281 133.46875 140.488281 L 91.410156 140.488281 C 90.894531 140.488281 90.476562 140.066406 90.476562 139.554688 L 90.476562 85.347656 C 90.476562 84.832031 90.894531 84.410156 91.410156 84.410156 L 122.25 84.410156 L 122.25 92.496094 C 122.25 94.738281 124.074219 96.5625 126.316406 96.5625 L 134.402344 96.5625 Z M 134.402344 139.554688 " fill-opacity="1" fill-rule="nonzero"/></g><g clip-path="url(#409ef69619)"><g clip-path="url(#829637cda4)"><g clip-path="url(#411373106a)"><path fill="#5d16e8" d="M 111.929688 111.234375 L 107.738281 114.554688 L 102.589844 108.054688 L 106.78125 104.734375 Z M 111.929688 111.234375 " fill-opacity="1" fill-rule="nonzero"/></g></g></g><g clip-path="url(#d1c8e7342a)"><g clip-path="url(#5b1b5b4cba)"><g clip-path="url(#136edbbfd3)"><path fill="#5d16e8" d="M 112.707031 112.210938 C 111.882812 112.859375 109.28125 114.921875 108.511719 115.53125 L 125.835938 137.40625 L 130.03125 134.082031 Z M 112.707031 112.210938 " fill-opacity="1" fill-rule="nonzero"/></g></g></g><g clip-path="url(#83a0880309)"><g clip-path="url(#77f4a4a77a)"><g clip-path="url(#cb1a231966)"><path fill="#5d16e8" d="M 117.699219 98.167969 L 117.023438 99.136719 C 116.382812 100.066406 115.414062 100.835938 114.363281 101.246094 L 113.265625 101.679688 L 114.234375 102.351562 C 115.164062 102.992188 115.929688 103.964844 116.34375 105.011719 L 116.777344 106.113281 L 117.449219 105.140625 C 118.089844 104.214844 119.058594 103.445312 120.109375 103.03125 L 121.207031 102.601562 L 120.238281 101.925781 C 119.3125 101.285156 118.542969 100.316406 118.128906 99.265625 Z M 117.699219 98.167969 " fill-opacity="1" fill-rule="nonzero"/></g></g></g><g clip-path="url(#20e12c6f52)"><g clip-path="url(#1693b7d3f3)"><g clip-path="url(#4ebde5782f)"><path fill="#5d16e8" d="M 97.34375 98.5625 C 99.222656 98.78125 100.882812 100.875 100.664062 102.753906 C 100.882812 100.875 102.980469 99.214844 104.859375 99.433594 C 102.980469 99.214844 101.320312 97.117188 101.539062 95.242188 C 101.320312 97.117188 99.222656 98.78125 97.34375 98.5625 Z M 97.34375 98.5625 " fill-opacity="1" fill-rule="nonzero"/></g></g></g><g clip-path="url(#32720b62da)"><g clip-path="url(#74bfd80397)"><g clip-path="url(#8690839312)"><path fill="#5d16e8" d="M 93.242188 112.046875 C 95.121094 112.265625 96.78125 114.363281 96.5625 116.238281 C 96.78125 114.359375 98.878906 112.699219 100.753906 112.917969 C 98.875 112.699219 97.214844 110.605469 97.433594 108.726562 C 97.214844 110.605469 95.121094 112.265625 93.242188 112.046875 Z M 93.242188 112.046875 " fill-opacity="1" fill-rule="nonzero"/></g></g></g></svg>